<mxfile host="app.diagrams.net" modified="2022-04-13T10:15:17.113Z" agent="5.0 (Macintosh; Intel Mac OS X 10_15_7) AppleWebKit/537.36 (KHTML, like Gecko) Chrome/100.0.4896.75 Safari/537.36" etag="FWKHG69b6zD2GpJrMKKq" version="17.4.0" type="github">
  <diagram id="McTZ52ggdWXjlxN5FeZG" name="Page-1">
    <mxGraphModel dx="863" dy="648" grid="1" gridSize="10" guides="1" tooltips="1" connect="1" arrows="1" fold="1" page="1" pageScale="1" pageWidth="827" pageHeight="1169" math="0" shadow="0">
      <root>
        <mxCell id="0" />
        <mxCell id="1" parent="0" />
        <mxCell id="8sQc4D98yTRKooQ2ZgdU-5" value="Edici칩n anual" style="swimlane;childLayout=stackLayout;horizontal=1;startSize=30;horizontalStack=0;rounded=1;fontSize=14;fontStyle=0;strokeWidth=2;resizeParent=0;resizeLast=1;shadow=0;dashed=0;align=center;" vertex="1" parent="1">
          <mxGeometry x="310" y="60" width="160" height="140" as="geometry" />
        </mxCell>
        <mxCell id="8sQc4D98yTRKooQ2ZgdU-6" value="+ idEdici칩n&#xa;+ numEtapas&#xa;+ a침o&#xa;+ fechaInicio&#xa;+ fechaFin&#xa;+ lugarInicio&#xa;+ lugarFin" style="align=left;strokeColor=none;fillColor=none;spacingLeft=4;fontSize=12;verticalAlign=top;resizable=0;rotatable=0;part=1;" vertex="1" parent="8sQc4D98yTRKooQ2ZgdU-5">
          <mxGeometry y="30" width="160" height="110" as="geometry" />
        </mxCell>
        <mxCell id="8sQc4D98yTRKooQ2ZgdU-8" value="Etapa" style="swimlane;childLayout=stackLayout;horizontal=1;startSize=30;horizontalStack=0;rounded=1;fontSize=14;fontStyle=0;strokeWidth=2;resizeParent=0;resizeLast=1;shadow=0;dashed=0;align=center;" vertex="1" parent="1">
          <mxGeometry x="10" y="77.5" width="160" height="105" as="geometry" />
        </mxCell>
        <mxCell id="8sQc4D98yTRKooQ2ZgdU-9" value="+ idEtapa&#xa;+ kilometros&#xa;+ origen&#xa;+ tipo" style="align=left;strokeColor=none;fillColor=none;spacingLeft=4;fontSize=12;verticalAlign=top;resizable=0;rotatable=0;part=1;" vertex="1" parent="8sQc4D98yTRKooQ2ZgdU-8">
          <mxGeometry y="30" width="160" height="75" as="geometry" />
        </mxCell>
        <mxCell id="8sQc4D98yTRKooQ2ZgdU-10" value="Equipo" style="swimlane;childLayout=stackLayout;horizontal=1;startSize=30;horizontalStack=0;rounded=1;fontSize=14;fontStyle=0;strokeWidth=2;resizeParent=0;resizeLast=1;shadow=0;dashed=0;align=center;" vertex="1" parent="1">
          <mxGeometry x="580" y="70" width="160" height="100" as="geometry">
            <mxRectangle x="410" y="340" width="80" height="30" as="alternateBounds" />
          </mxGeometry>
        </mxCell>
        <mxCell id="8sQc4D98yTRKooQ2ZgdU-11" value="+ idEquipo&#xa;+ nombre&#xa;+ nacionalidad&#xa;+ director" style="align=left;strokeColor=none;fillColor=none;spacingLeft=4;fontSize=12;verticalAlign=top;resizable=0;rotatable=0;part=1;" vertex="1" parent="8sQc4D98yTRKooQ2ZgdU-10">
          <mxGeometry y="30" width="160" height="70" as="geometry" />
        </mxCell>
        <mxCell id="8sQc4D98yTRKooQ2ZgdU-12" value="Ciclista" style="swimlane;childLayout=stackLayout;horizontal=1;startSize=30;horizontalStack=0;rounded=1;fontSize=14;fontStyle=0;strokeWidth=2;resizeParent=0;resizeLast=1;shadow=0;dashed=0;align=center;" vertex="1" parent="1">
          <mxGeometry x="560" y="330" width="160" height="100" as="geometry" />
        </mxCell>
        <mxCell id="8sQc4D98yTRKooQ2ZgdU-13" value="+ idCiclista&#xa;+ nombre&#xa;+ nacionalidad&#xa;+ fechaNacimiento" style="align=left;strokeColor=none;fillColor=none;spacingLeft=4;fontSize=12;verticalAlign=top;resizable=0;rotatable=0;part=1;" vertex="1" parent="8sQc4D98yTRKooQ2ZgdU-12">
          <mxGeometry y="30" width="160" height="70" as="geometry" />
        </mxCell>
        <mxCell id="8sQc4D98yTRKooQ2ZgdU-14" value="Tiempo" style="swimlane;childLayout=stackLayout;horizontal=1;startSize=30;horizontalStack=0;rounded=1;fontSize=14;fontStyle=0;strokeWidth=2;resizeParent=0;resizeLast=1;shadow=0;dashed=0;align=center;" vertex="1" parent="1">
          <mxGeometry x="240" y="335" width="160" height="90" as="geometry" />
        </mxCell>
        <mxCell id="8sQc4D98yTRKooQ2ZgdU-15" value="+ tiempoEtapa&#xa;+ tiempoGeneral&#xa;+ tiempoMonta침a" style="align=left;strokeColor=none;fillColor=none;spacingLeft=4;fontSize=12;verticalAlign=top;resizable=0;rotatable=0;part=1;" vertex="1" parent="8sQc4D98yTRKooQ2ZgdU-14">
          <mxGeometry y="30" width="160" height="60" as="geometry" />
        </mxCell>
        <mxCell id="8sQc4D98yTRKooQ2ZgdU-16" value="" style="fontSize=12;html=1;endArrow=ERoneToMany;rounded=0;exitX=0;exitY=0.5;exitDx=0;exitDy=0;entryX=1.006;entryY=0.189;entryDx=0;entryDy=0;entryPerimeter=0;startArrow=none;" edge="1" parent="1" source="8sQc4D98yTRKooQ2ZgdU-18" target="8sQc4D98yTRKooQ2ZgdU-9">
          <mxGeometry width="100" height="100" relative="1" as="geometry">
            <mxPoint x="250" y="380" as="sourcePoint" />
            <mxPoint x="350" y="280" as="targetPoint" />
          </mxGeometry>
        </mxCell>
        <mxCell id="8sQc4D98yTRKooQ2ZgdU-17" value="" style="fontSize=12;html=1;endArrow=ERoneToMany;rounded=0;entryX=0;entryY=0.25;entryDx=0;entryDy=0;exitX=1;exitY=0.5;exitDx=0;exitDy=0;startArrow=none;" edge="1" parent="1" source="8sQc4D98yTRKooQ2ZgdU-20" target="8sQc4D98yTRKooQ2ZgdU-11">
          <mxGeometry width="100" height="100" relative="1" as="geometry">
            <mxPoint x="250" y="380" as="sourcePoint" />
            <mxPoint x="350" y="280" as="targetPoint" />
          </mxGeometry>
        </mxCell>
        <mxCell id="8sQc4D98yTRKooQ2ZgdU-18" value="Tiene" style="shape=rhombus;perimeter=rhombusPerimeter;whiteSpace=wrap;html=1;align=center;" vertex="1" parent="1">
          <mxGeometry x="210" y="100" width="70" height="40" as="geometry" />
        </mxCell>
        <mxCell id="8sQc4D98yTRKooQ2ZgdU-19" value="" style="fontSize=12;html=1;endArrow=none;rounded=0;entryX=1;entryY=0.5;entryDx=0;entryDy=0;exitX=0;exitY=0.25;exitDx=0;exitDy=0;" edge="1" parent="1" source="8sQc4D98yTRKooQ2ZgdU-6" target="8sQc4D98yTRKooQ2ZgdU-18">
          <mxGeometry width="100" height="100" relative="1" as="geometry">
            <mxPoint x="320" y="120" as="sourcePoint" />
            <mxPoint x="210.96000000000004" y="119.17499999999995" as="targetPoint" />
          </mxGeometry>
        </mxCell>
        <mxCell id="8sQc4D98yTRKooQ2ZgdU-20" value="Participa" style="shape=rhombus;perimeter=rhombusPerimeter;whiteSpace=wrap;html=1;align=center;" vertex="1" parent="1">
          <mxGeometry x="480" y="100" width="70" height="40" as="geometry" />
        </mxCell>
        <mxCell id="8sQc4D98yTRKooQ2ZgdU-21" value="" style="fontSize=12;html=1;endArrow=none;rounded=0;entryX=0;entryY=0.5;entryDx=0;entryDy=0;exitX=1;exitY=0.25;exitDx=0;exitDy=0;" edge="1" parent="1" source="8sQc4D98yTRKooQ2ZgdU-6" target="8sQc4D98yTRKooQ2ZgdU-20">
          <mxGeometry width="100" height="100" relative="1" as="geometry">
            <mxPoint x="460" y="117.5" as="sourcePoint" />
            <mxPoint x="560" y="117.5" as="targetPoint" />
          </mxGeometry>
        </mxCell>
        <mxCell id="8sQc4D98yTRKooQ2ZgdU-22" value="" style="fontSize=12;html=1;endArrow=ERoneToMany;rounded=0;entryX=0.5;entryY=0;entryDx=0;entryDy=0;exitX=0.375;exitY=1;exitDx=0;exitDy=0;exitPerimeter=0;" edge="1" parent="1" source="8sQc4D98yTRKooQ2ZgdU-11" target="8sQc4D98yTRKooQ2ZgdU-12">
          <mxGeometry width="100" height="100" relative="1" as="geometry">
            <mxPoint x="250" y="380" as="sourcePoint" />
            <mxPoint x="350" y="280" as="targetPoint" />
          </mxGeometry>
        </mxCell>
        <mxCell id="8sQc4D98yTRKooQ2ZgdU-23" value="Pertenece" style="shape=rhombus;perimeter=rhombusPerimeter;whiteSpace=wrap;html=1;align=center;" vertex="1" parent="1">
          <mxGeometry x="592.5" y="210" width="95" height="40" as="geometry" />
        </mxCell>
        <mxCell id="8sQc4D98yTRKooQ2ZgdU-26" value="" style="fontSize=12;html=1;endArrow=ERoneToMany;rounded=0;exitX=0;exitY=0;exitDx=0;exitDy=0;entryX=1;entryY=0.25;entryDx=0;entryDy=0;" edge="1" parent="1" source="8sQc4D98yTRKooQ2ZgdU-13" target="8sQc4D98yTRKooQ2ZgdU-14">
          <mxGeometry width="100" height="100" relative="1" as="geometry">
            <mxPoint x="250" y="380" as="sourcePoint" />
            <mxPoint x="350" y="280" as="targetPoint" />
          </mxGeometry>
        </mxCell>
        <mxCell id="8sQc4D98yTRKooQ2ZgdU-27" value="Obtiene" style="shape=rhombus;perimeter=rhombusPerimeter;whiteSpace=wrap;html=1;align=center;" vertex="1" parent="1">
          <mxGeometry x="450" y="335" width="70" height="45" as="geometry" />
        </mxCell>
      </root>
    </mxGraphModel>
  </diagram>
</mxfile>
